<?xml version="1.0" encoding="UTF-8" standalone="no"?> 
<svg id="Layer_1" data-name="Layer 1" xmlns="http://www.w3.org/2000/svg" viewBox="0 0 128 128" width="50" height="50">
    <defs>
        <style>.cls-1{fill:red;}</style>
    </defs>
    <path class="cls-1" d="M92.73,23.27H35.27a12,12,0,0,0-12,12V92.73a12,12,0,0,0,12,12H92.73a12,12,0,0,0,12-12V35.27A12,12,0,0,0,92.73,23.27Zm-2,60.39a3.34,3.34,0,0,1,0,4.72l-2.39,2.39a3.34,3.34,0,0,1-4.72,0L64,71.11,44.34,90.77a3.34,3.34,0,0,1-4.72,0l-2.39-2.39a3.34,3.34,0,0,1,0-4.72L56.89,64,37.23,44.35a3.34,3.34,0,0,1,0-4.72l2.39-2.4a3.36,3.36,0,0,1,4.72,0L64,56.89,83.66,37.23a3.36,3.36,0,0,1,4.72,0l2.39,2.4a3.34,3.34,0,0,1,0,4.72L71.11,64Z"/>
    <path d="M90.77,83.66a3.34,3.34,0,0,1,0,4.72l-2.39,2.39a3.34,3.34,0,0,1-4.72,0L64,71.11,44.34,90.77a3.34,3.34,0,0,1-4.72,0l-2.39-2.39a3.34,3.34,0,0,1,0-4.72L56.89,64,37.23,44.35a3.34,3.34,0,0,1,0-4.72l2.39-2.4a3.36,3.36,0,0,1,4.72,0L64,56.89,83.66,37.23a3.36,3.36,0,0,1,4.72,0l2.39,2.4a3.34,3.34,0,0,1,0,4.72L71.11,64Z"/>
<svg version="1.1" height="50" width="50" id="Layer_1" xmlns="http://www.w3.org/2000/svg" xmlns:xlink="http://www.w3.org/1999/xlink" x="0px" y="0px" viewBox="0 0 50 50" enable-background="new 0 0 50 50" xml:space="preserve">
    
    <path fill="#ffffff" d="M9.016,40.837c0.195,0.195,0.451,0.292,0.707,0.292c0.256,0,0.512-0.098,0.708-0.293l14.292-14.309
        l14.292,14.309c0.195,0.196,0.451,0.293,0.708,0.293c0.256,0,0.512-0.098,0.707-0.292c0.391-0.39,0.391-1.023,0.001-1.414
        L26.153,25.129L40.43,10.836c0.39-0.391,0.39-1.024-0.001-1.414c-0.392-0.391-1.024-0.391-1.414,0.001L24.722,23.732L10.43,9.423
        c-0.391-0.391-1.024-0.391-1.414-0.001c-0.391,0.39-0.391,1.023-0.001,1.414l14.276,14.293L9.015,39.423
        C8.625,39.813,8.625,40.447,9.016,40.837z" id="id_103"></path>
</svg>